<?xml version="1.0" encoding="UTF-8" standalone="no"?>
<svg
   role="img"
   viewBox="0 0 24 24"
   version="1.1"
   id="svg1"
   sodipodi:docname="datagrip_withe.svg"
   inkscape:version="1.4.2 (f4327f4, 2025-05-13)"
   xmlns:inkscape="http://www.inkscape.org/namespaces/inkscape"
   xmlns:sodipodi="http://sodipodi.sourceforge.net/DTD/sodipodi-0.dtd"
   xmlns="http://www.w3.org/2000/svg"
   xmlns:svg="http://www.w3.org/2000/svg"
   xmlns:rdf="http://www.w3.org/1999/02/22-rdf-syntax-ns#"
   xmlns:cc="http://creativecommons.org/ns#"
   xmlns:dc="http://purl.org/dc/elements/1.1/">
  <defs
     id="defs1" />
  <sodipodi:namedview
     id="namedview1"
     pagecolor="#ffffff"
     bordercolor="#000000"
     borderopacity="0.25"
     inkscape:showpageshadow="2"
     inkscape:pageopacity="0.0"
     inkscape:pagecheckerboard="0"
     inkscape:deskcolor="#d1d1d1"
     inkscape:zoom="22.625"
     inkscape:cx="12"
     inkscape:cy="12"
     inkscape:window-width="1366"
     inkscape:window-height="745"
     inkscape:window-x="-8"
     inkscape:window-y="-8"
     inkscape:window-maximized="1"
     inkscape:current-layer="svg1" />
  <title
     id="title1">DataGrip</title>
  <path
     d="M0 0v24h24V0Zm17.1797 2.9477a5.452 5.452 0 0 1 3.9047 1.364L19.7078 5.972a3.672 3.672 0 0 0-2.596-1.0086c-1.6 0-2.8555 1.408-2.8555 3.096v.0282c0 1.816 1.2517 3.1523 3.0117 3.1523a3.492 3.492 0 0 0 2.064-.5921V9.2234h-2.2V7.336h4.3157v4.3157a6.436 6.436 0 0 1-4.2438 1.5757c-3.096 0-5.2242-2.1797-5.2242-5.1117v-.0281a5.1 5.1 0 0 1 5.2-5.1398zm-14.7438.1718h3.8758c3.12 0 5.2805 2.1439 5.2805 4.9399v.028c0 2.8-2.1605 4.968-5.2805 4.968H2.436Zm4.075 1.9688a2.852 2.852 0 0 0-.1992.003H4.6203v6h1.6914A2.832 2.832 0 0 0 9.304 8.1235v-.036a2.852 2.852 0 0 0-2.793-2.9991Zm-4.303 14.407h9v1.5h-9z"
     id="path1"
     style="fill:#ffffff" />
  <metadata
     id="metadata1">
    <rdf:RDF>
      <cc:Work
         rdf:about="">
        <dc:title>DataGrip</dc:title>
      </cc:Work>
    </rdf:RDF>
  </metadata>
</svg>
