<?xml version="1.0" encoding="UTF-8" standalone="no"?>
<svg
   role="img"
   viewBox="0 0 24 24"
   version="1.1"
   id="svg1"
   sodipodi:docname="pycharm_withe.svg"
   inkscape:version="1.4.2 (f4327f4, 2025-05-13)"
   xmlns:inkscape="http://www.inkscape.org/namespaces/inkscape"
   xmlns:sodipodi="http://sodipodi.sourceforge.net/DTD/sodipodi-0.dtd"
   xmlns="http://www.w3.org/2000/svg"
   xmlns:svg="http://www.w3.org/2000/svg"
   xmlns:rdf="http://www.w3.org/1999/02/22-rdf-syntax-ns#"
   xmlns:cc="http://creativecommons.org/ns#"
   xmlns:dc="http://purl.org/dc/elements/1.1/">
  <defs
     id="defs1" />
  <sodipodi:namedview
     id="namedview1"
     pagecolor="#ffffff"
     bordercolor="#000000"
     borderopacity="0.25"
     inkscape:showpageshadow="2"
     inkscape:pageopacity="0.0"
     inkscape:pagecheckerboard="0"
     inkscape:deskcolor="#d1d1d1"
     inkscape:zoom="22.625"
     inkscape:cx="12"
     inkscape:cy="12"
     inkscape:window-width="1366"
     inkscape:window-height="745"
     inkscape:window-x="-8"
     inkscape:window-y="-8"
     inkscape:window-maximized="1"
     inkscape:current-layer="svg1" />
  <title
     id="title1">PyCharm</title>
  <path
     d="M7.833 6.666v-.055c0-1-.667-1.5-1.778-1.5H4.389v3.055h1.723c1.111 0 1.721-.666 1.721-1.5zM0 0v24h24V0H0zm2.223 3.167h4c2.389 0 3.833 1.389 3.833 3.445v.055c0 2.278-1.778 3.5-4.001 3.5H4.389v2.945H2.223V3.167zM11.277 21h-9v-1.5h9V21zm4.779-7.777c-2.944.055-5.111-2.223-5.111-5.057C10.944 5.333 13.056 3 16.111 3c1.889 0 3 .611 3.944 1.556l-1.389 1.61c-.778-.722-1.556-1.111-2.556-1.111-1.658 0-2.873 1.375-2.887 3.084.014 1.709 1.174 3.083 2.887 3.083 1.111 0 1.833-.445 2.61-1.167l1.39 1.389c-.999 1.112-2.166 1.779-4.054 1.779z"
     id="path1"
     style="fill:#ffffff" />
  <metadata
     id="metadata1">
    <rdf:RDF>
      <cc:Work
         rdf:about="">
        <dc:title>PyCharm</dc:title>
      </cc:Work>
    </rdf:RDF>
  </metadata>
</svg>
